STARTFONT 2.1
FONT -Rockpod-Themify-Masks-Medium-R-Normal--12-120-75-75-P-120-ISO10646-1
SIZE 12 75 75
FONTBOUNDINGBOX 12 12 0 0
STARTPROPERTIES 8
FONT_NAME "Themify Masks 12"
FONT_ASCENT 12
FONT_DESCENT 0
PIXEL_SIZE 12
POINT_SIZE 120
RESOLUTION_X 75
RESOLUTION_Y 75
SPACING "P"
ENDPROPERTIES
CHARS 4
STARTCHAR mask-top-left
ENCODING 65
SWIDTH 1000 0
DWIDTH 12 0
BBX 12 12 0 0
BITMAP
FE00
F000
E000
C000
8000
8000
0000
0000
0000
0000
0000
0000
ENDCHAR
STARTCHAR mask-top-right
ENCODING 66
SWIDTH 1000 0
DWIDTH 12 0
BBX 12 12 0 0
BITMAP
07F0
00F0
0070
0030
0010
0010
0000
0000
0000
0000
0000
0000
ENDCHAR
STARTCHAR mask-bottom-left
ENCODING 67
SWIDTH 1000 0
DWIDTH 12 0
BBX 12 12 0 0
BITMAP
0000
0000
0000
0000
0000
0000
8000
8000
C000
E000
F000
FE00
ENDCHAR
STARTCHAR mask-bottom-right
ENCODING 68
SWIDTH 1000 0
DWIDTH 12 0
BBX 12 12 0 0
BITMAP
0000
0000
0000
0000
0000
0000
0010
0010
0030
0070
00F0
07F0
ENDCHAR
ENDFONT
