STARTFONT 2.1
FONT -Rockpod-Themify-Pills-Medium-R-Normal--28-280-75-75-P-140-ISO10646-1
SIZE 28 75 75
FONTBOUNDINGBOX 46 28 0 0
STARTPROPERTIES 8
FONT_NAME "Themify Pills 28"
FONT_ASCENT 28
FONT_DESCENT 0
PIXEL_SIZE 28
POINT_SIZE 280
RESOLUTION_X 75
RESOLUTION_Y 75
SPACING "P"
ENDPROPERTIES
CHARS 5
STARTCHAR pill-left
ENCODING 65
SWIDTH 500 0
DWIDTH 14 0
BBX 14 28 0 0
BITMAP
03FC
0FFC
1FFC
3FFC
7FFC
FFFC
FFFC
FFFC
FFFC
FFFC
FFFC
FFFC
FFFC
FFFC
FFFC
FFFC
FFFC
FFFC
FFFC
FFFC
FFFC
FFFC
FFFC
7FFC
3FFC
1FFC
0FFC
03FC
ENDCHAR
STARTCHAR pill-right
ENCODING 66
SWIDTH 500 0
DWIDTH 14 0
BBX 14 28 0 0
BITMAP
FF00
FFC0
FFE0
FFF0
FFF8
FFFC
FFFC
FFFC
FFFC
FFFC
FFFC
FFFC
FFFC
FFFC
FFFC
FFFC
FFFC
FFFC
FFFC
FFFC
FFFC
FFFC
FFFC
FFF8
FFF0
FFE0
FFC0
FF00
ENDCHAR
STARTCHAR play-ring
ENCODING 67
SWIDTH 1000 0
DWIDTH 28 0
BBX 28 28 0 0
BITMAP
00000000
001F8000
00FFF000
01FFF800
07C03E00
0F000F00
0E000700
1C000380
382001C0
383001C0
303C00C0
703F00E0
703F80E0
703FE0E0
703FF8E0
703FE0E0
703F80E0
303F00C0
383C01C0
383001C0
1C200380
0E000700
0F000F00
07C03E00
01FFF800
00FFF000
001F8000
00000000
ENDCHAR
STARTCHAR status-pill
ENCODING 68
SWIDTH 1643 0
DWIDTH 46 0
BBX 46 28 0 0
BITMAP
003FFFFFF000
00FFFFFFFC00
03FFFFFFFF00
07FFFFFFFF80
0FFFFFFFFFC0
1FFFFFFFFFE0
3FFFFFFFFFF0
3FFFFFFFF0F0
7FFFFFFFF0F8
7FFFFFFFC038
FFFFFFFFDFBC
FFFFFFFFDFBC
FFE3FFFFDFBC
FFE3FFFFDFBC
FFE3FFFFDFBC
FFFFFFFFDFBC
FFFFFFFFDFBC
FFFFFFFFDFBC
7FFFFFFFDFB8
7FFFFFFFC038
3FFFFFFFFFF0
3FFFFFFFFFF0
1FFFFFFFFFE0
0FFFFFFFFFC0
07FFFFFFFF80
03FFFFFFFF00
00FFFFFFFC00
003FFFFFF000
ENDCHAR
STARTCHAR status-icons
ENCODING 69
SWIDTH 1643 0
DWIDTH 46 0
BBX 46 28 0 0
BITMAP
000000000000
000000000000
000000000000
000000000000
000000000000
000000001E00
000000001E00
00000000FFC0
000000008040
000000008040
000000008040
003C00008040
003C00008040
003C00008040
003C00008040
000000008040
000000008040
000000008040
000000008040
00000000FFC0
000000000000
000000000000
000000000000
000000000000
000000000000
000000000000
000000000000
000000000000
ENDCHAR
ENDFONT
